<?xml version="1.0" encoding="UTF-8"?>
<!DOCTYPE svg PUBLIC "-//W3C//DTD SVG 1.1//EN" "http://www.w3.org/Graphics/SVG/1.1/DTD/svg11.dtd">
<svg xmlns="http://www.w3.org/2000/svg" version="1.1" width="200px" height="200px" style="shape-rendering:geometricPrecision; text-rendering:geometricPrecision; image-rendering:optimizeQuality; fill-rule:evenodd; clip-rule:evenodd" xmlns:xlink="http://www.w3.org/1999/xlink">
	<g><path style="opacity:1" fill="#2c82c9" d="M -0.5,-0.5 C 66.1667,-0.5 132.833,-0.5 199.5,-0.5C 199.5,66.1667 199.5,132.833 199.5,199.5C 132.833,199.5 66.1667,199.5 -0.5,199.5C -0.5,132.833 -0.5,66.1667 -0.5,-0.5 Z"/></g>
	<g><path style="opacity:1" fill="#fdfdfe" d="M 106.5,49.5 C 131.891,46.8291 146.224,57.9957 149.5,83C 149.155,100.328 140.822,111.662 124.5,117C 115.809,119.559 107.476,118.725 99.5,114.5C 96.8494,116.65 94.3494,118.983 92,121.5C 91.8089,127.083 91.3089,132.583 90.5,138C 85.1667,138.333 79.8333,138.667 74.5,139C 71.1667,142.333 67.8333,145.667 64.5,149C 59.8333,149.667 55.1667,149.667 50.5,149C 49.3676,144.587 49.2009,140.087 50,135.5C 61.3333,124.167 72.6667,112.833 84,101.5C 75.6916,77.2436 83.1916,59.9103 106.5,49.5 Z"/></g>
	<g><path style="opacity:1" fill="#3385ca" d="M 119.5,65.5 C 130.495,66.3114 134.662,71.9781 132,82.5C 122.009,91.8061 114.842,89.9728 110.5,77C 111.497,71.5129 114.497,67.6796 119.5,65.5 Z"/></g>
</svg>
